<svg xmlns="http://www.w3.org/2000/svg" xml:space="preserve" fill-rule="evenodd" stroke-linejoin="round" stroke-miterlimit="2" clip-rule="evenodd" viewBox="0 0 62 62"><path fill="none" d="M0 0h61.649v61.649H0z"/><path fill="#1a9f82" fill-rule="nonzero" d="M58.638 30.825c0 15.361-12.453 27.814-27.814 27.814S3.01 46.186 3.01 30.825 15.463 3.01 30.824 3.01c15.361.001 27.814 12.454 27.814 27.815"/><path fill="#fff" fill-rule="nonzero" d="M53.24 30.825c0 12.38-10.036 22.415-22.415 22.415-12.38 0-22.415-10.035-22.415-22.415 0-12.38 10.035-22.415 22.415-22.415 12.379 0 22.415 10.035 22.415 22.415"/><path fill="#fff" fill-rule="nonzero" d="M40.524 40.493a2.812 2.812 0 0 1-2.811 2.811h-5.212v.001a1.876 1.876 0 0 0-1.689 1.104 1.872 1.872 0 0 0-1.708-1.105h-5.213a2.812 2.812 0 0 1-2.811-2.811V18.94h19.444v21.553Z"/><path fill="#76777b" fill-rule="nonzero" d="M38.416 30.648a.389.389 0 0 1-.356-.387.082.082 0 0 0-.083-.082h-.009a.082.082 0 0 0-.083.082.389.389 0 0 1-.388.388.385.385 0 0 1-.331-.188v-7.773h1.25v7.959Zm0 1.061H30.92v-.896a.553.553 0 0 0 .449-.264.553.553 0 0 0 .941.002.555.555 0 0 0 .941 0 .556.556 0 0 0 .471.264c.202 0 .379-.11.476-.273a.552.552 0 0 0 .946.009.553.553 0 0 0 .941 0 .555.555 0 0 0 .471.264.555.555 0 0 0 .47-.264.553.553 0 0 0 .946-.006.559.559 0 0 0 .444.27v.895Zm0 1.735-.65-.52-.051.068c-.006.008-.564.734-1.279.734-.835 0-1.41-.846-1.416-.855l-.066-.098-.07.094a1.506 1.506 0 0 1-.491.392c-.435.226-.927.242-1.462.049-.652-.235-1.519-1.015-1.89-1.366h7.375v1.502Zm0 .211v5.197a2.109 2.109 0 0 1-2.109 2.109h-4.45c-.384 0-.724.184-.937.469v-3.721l2.321-.29.256.022-1.779.922a.064.064 0 0 0-.029.079c.012.03.046.045.076.035l1.911-.606-1.291 1.533a.063.063 0 0 0 .003.084.062.062 0 0 0 .084.004l1.533-1.291-.606 1.91a.062.062 0 0 0 .036.076c.029.013.063 0 .078-.028l.922-1.78.172 1.997a.061.061 0 0 0 .061.057.063.063 0 0 0 .062-.057l.171-1.997.923 1.78a.062.062 0 0 0 .079.028.061.061 0 0 0 .034-.076l-.606-1.91 1.533 1.291a.063.063 0 0 0 .085-.004.064.064 0 0 0 .003-.084l-1.291-1.533 1.911.606c.03.01.063-.005.076-.035a.065.065 0 0 0-.029-.079l-1.78-.922 1.997-.171a.062.062 0 0 0 0-.124l-1.997-.171 1.78-.922a.064.064 0 0 0 .029-.079.063.063 0 0 0-.076-.035l-1.911.606 1.291-1.533a.064.064 0 0 0-.003-.084.064.064 0 0 0-.085-.004l-1.533 1.292.606-1.911a.062.062 0 0 0-.034-.076.062.062 0 0 0-.079.029l-.923 1.779-.171-1.997a.063.063 0 0 0-.062-.056.061.061 0 0 0-.061.056l-.172 1.997-.922-1.779a.062.062 0 0 0-.114.047l.606 1.911-1.533-1.292a.063.063 0 0 0-.084.004.063.063 0 0 0-.003.084l1.291 1.533-1.911-.606a.062.062 0 0 0-.076.035.063.063 0 0 0 .029.079l1.779.922-.127.012-2.45-.234v-4.698c.373.356 1.262 1.158 1.955 1.408 1.142.412 1.851-.186 2.07-.415.18.232.725.842 1.491.842.332 0 .682-.139 1.011-.401.163-.129.282-.257.346-.332l.623.498Zm-4.671 3.309-1.328-.688 1.426.452a.06.06 0 0 0 .069-.025.062.062 0 0 0-.003-.074l-.964-1.144 1.144.964a.065.065 0 0 0 .075.004.063.063 0 0 0 .024-.071l-.452-1.425.688 1.327c.013.025.04.038.067.033a.063.063 0 0 0 .05-.056l.127-1.489.128 1.489a.06.06 0 0 0 .05.056.062.062 0 0 0 .067-.033l.687-1.327-.451 1.425a.062.062 0 0 0 .024.071.065.065 0 0 0 .075-.004l1.143-.964-.963 1.144a.062.062 0 0 0-.004.074.063.063 0 0 0 .07.025l1.426-.452-1.328.688a.061.061 0 0 0-.032.067.062.062 0 0 0 .055.05l1.49.127-1.49.128a.06.06 0 0 0-.055.049.063.063 0 0 0 .032.068l1.328.688-1.426-.452a.062.062 0 0 0-.066.098l.963 1.144-1.143-.963a.062.062 0 0 0-.075-.004.06.06 0 0 0-.024.07l.451 1.425-.687-1.327a.06.06 0 0 0-.067-.032.06.06 0 0 0-.05.055l-.128 1.489-.127-1.489a.063.063 0 0 0-.05-.055.05.05 0 0 0-.012-.002.062.062 0 0 0-.055.034l-.688 1.327.452-1.425a.062.062 0 0 0-.099-.066l-1.144.963.964-1.144a.062.062 0 0 0 .003-.074.058.058 0 0 0-.069-.024l-1.426.452 1.328-.688a.063.063 0 0 0 .032-.068.062.062 0 0 0-.056-.049l-1.489-.128 1.489-.127a.064.064 0 0 0 .056-.05.061.061 0 0 0-.032-.067m-2.825-.086 1.762.167-1.181.101a.062.062 0 0 0 0 .124l1.147.098-1.728.216v-.706Zm0-7.41 1.307.798a.387.387 0 0 1-.387.381.39.39 0 0 1-.389-.388.082.082 0 0 0-.082-.083.083.083 0 0 0-.083.083.388.388 0 0 1-.366.386v-1.177Zm0-6.78h3.206c-.075.561-.38 2.404-1.328 4.179a9.302 9.302 0 0 1-1.878 2.419v-6.598Zm2.752 2.575a13.94 13.94 0 0 0 .474-1.723v1.93l-.474-.207Zm-.827 1.861.1-.18c.273-.513.494-1.032.672-1.525l.529.231v2.027l-1.301-.553Zm-.724 1.09c.212-.276.432-.593.641-.946l1.384.589v1.161l-2.025-.804Zm.722 2.428a.387.387 0 0 1-.431-.264l.431.264Zm.409-.466a.082.082 0 0 0-.083.083v.002a.386.386 0 0 1-.143.298l-1.951-1.19c.159-.146.526-.5.94-1.019l2.131.846v.997a.08.08 0 0 0-.036.067.39.39 0 0 1-.388.389.39.39 0 0 1-.388-.387v-.002a.083.083 0 0 0-.082-.084m1.059-.242.664.569a.389.389 0 0 1-.302.146.39.39 0 0 1-.362-.25v-.465Zm0-7.246h2.675a15.648 15.648 0 0 1-1.032 4.078c-.674 1.651-1.37 2.517-1.643 2.819v-6.896Zm2.181 3.079c.247-.773.407-1.48.508-2.035v2.213l-.508-.178Zm-.448 1.21.063-.149c.125-.307.236-.61.333-.904l.56.197v1.19l-.956-.334Zm-.928 1.803c.251-.396.555-.942.863-1.649l1.021.354v2.116l-1.884-.82Zm1.828 1.481a.389.389 0 0 1-.776.002v-.005a.082.082 0 0 0-.083-.082.083.083 0 0 0-.083.082v.005a.388.388 0 0 1-.775-.002v-.003a.083.083 0 0 0-.083-.082.083.083 0 0 0-.083.083v.002a.462.462 0 0 1-.006.065l-.677-.571c.095-.1.272-.298.498-.617.046-.065.096-.138.149-.217l1.975.86v.399a.083.083 0 0 0-.056.079v.002Zm-6.258 1.446h-2.263v-2.04a.085.085 0 0 0-.051-.078.082.082 0 0 0-.09.02c-.004.003-.339.337-.979.399a3.365 3.365 0 0 1-1.236-.107c.271-.102.729-.289 1.066-.504a5.47 5.47 0 0 0 .977-.834.083.083 0 0 0-.082-.135 9.437 9.437 0 0 1-.762.149 3.028 3.028 0 0 1-.468.019c.272-.161.7-.432.925-.658.538-.543.71-1.133.717-1.158a.083.083 0 0 0-.132-.085c-.002.001-.231.182-.616.273a2.56 2.56 0 0 1-.447.067c.216-.191.594-.543.862-.925.502-.715.587-1.242.59-1.264a.083.083 0 0 0-.123-.084c-.004.002-.383.222-.507.28-.043.02-.117.05-.195.081.178-.209.424-.532.632-.932.277-.532.325-1.194.332-1.505h1.85v9.02Zm-2.428 0h-1.937v-1.576c.263.049.607.082.998.043.458-.046.772-.215.939-.334v1.867Zm-2.102-1.063a.388.388 0 0 1-.43-.384v-.002a.083.083 0 1 0-.166 0v.002a.388.388 0 0 1-.775.003v-.005a.082.082 0 0 0-.046-.074.092.092 0 0 0-.037-.009.083.083 0 0 0-.083.084v.005a.387.387 0 0 1-.775-.005.084.084 0 0 0-.014-.047.084.084 0 0 0-.069-.036.083.083 0 0 0-.083.083.388.388 0 0 1-.489.374v-7.945h3.377c-.012.317-.069.905-.311 1.368a3.6 3.6 0 0 1-.834 1.063.084.084 0 0 0-.03.081.08.08 0 0 0 .059.063c.019.006.197.049.565-.09.145-.055.258-.111.343-.159-.081.21-.246.549-.567.938-.411.499-.9.736-.905.739a.084.084 0 0 0-.047.073c0 .032.017.06.045.075.011.005.263.131.728.11.21-.009.36-.032.467-.056a4.07 4.07 0 0 1-.573.621c-.329.303-.945.474-.951.476a.08.08 0 0 0-.06.072.08.08 0 0 0 .047.082c.013.006.31.142.616.208.281.06.603.009.787-.032-.093.252-.34.793-.84 1.131-.469.316-1.038.48-1.043.482a.082.082 0 0 0-.059.091c.006.041.042.07.083.071l1.949-.029c.037.011.077.021.121.032v.547Zm0 1.063h-2.967v-.906a.554.554 0 0 0 .572-.254.553.553 0 0 0 .941.001.553.553 0 0 0 .941 0 .551.551 0 0 0 .513.261v.898Zm2.515-9.02c-.008.298-.056.933-.313 1.427a4.931 4.931 0 0 1-.841 1.15.086.086 0 0 0-.013.105.084.084 0 0 0 .099.033c.016-.006.401-.147.535-.21a9.17 9.17 0 0 0 .35-.19 3.697 3.697 0 0 1-.516 1.013c-.373.532-.993 1.028-.999 1.033a.08.08 0 0 0-.028.086.082.082 0 0 0 .067.06c.01.002.27.041.718-.065a2.02 2.02 0 0 0 .466-.171c-.096.214-.278.55-.59.865-.321.323-1.124.765-1.132.769a.083.083 0 0 0-.041.09.082.082 0 0 0 .073.065c.019.002.473.04.784-.006.182-.027.363-.061.503-.091a4.938 4.938 0 0 1-.749.609c-.48.306-1.248.565-1.256.567a.083.083 0 0 0-.056.075l.001.004-1.162.016c.191-.081.417-.193.627-.335.72-.485.943-1.328.952-1.364a.085.085 0 0 0-.023-.08.081.081 0 0 0-.081-.019c-.005.001-.482.146-.853.066a2.75 2.75 0 0 1-.375-.112c.223-.081.57-.23.8-.442.634-.585.713-.846.72-.874a.081.081 0 0 0-.033-.089.08.08 0 0 0-.094.002c-.002 0-.138.088-.606.109a1.75 1.75 0 0 1-.478-.039 3.24 3.24 0 0 0 .792-.688c.556-.674.667-1.209.671-1.231a.08.08 0 0 0-.041-.088.081.081 0 0 0-.097.012c-.001.002-.143.135-.495.268-.107.04-.194.063-.262.076.179-.177.467-.503.707-.962.26-.498.319-1.114.33-1.444h1.939Zm9.979 16.164V22.453H22.955v16.398a2.343 2.343 0 0 0 2.342 2.343h4.451c.518 0 .937.419.938.936v.001h.234v-.001c0-.517.419-.936.937-.936h4.451a2.342 2.342 0 0 0 2.342-2.343Z"/><path fill="#76777b" d="m30.803 9.54-.117.108v5.897c-.696.006-1.379.067-2.044.178l-.967-1.82.005-.007c.078-.184.162-.365.248-.545-.26.05-.519.104-.774.166l.088.351a.106.106 0 0 1-.077.129.106.106 0 0 1-.074.128.47.47 0 0 1 .114.335.375.375 0 0 0 .136.33.849.849 0 0 1 .128 1.097l.06-.016a.106.106 0 0 1 .129.077.105.105 0 0 1 .128.077l.113.446c-.241.058-.48.122-.716.194l-.115-.459a.104.104 0 0 1 .076-.128.107.107 0 0 1 .077-.129l.06-.015a.85.85 0 0 1-.412-1.013.362.362 0 0 0-.033-.368.477.477 0 0 1-.058-.35.106.106 0 0 1-.126-.077.106.106 0 0 1-.129-.076l-.086-.341a14.88 14.88 0 0 0-.63.2l.131.364a.107.107 0 0 1-.064.136.106.106 0 0 1-.061.135.484.484 0 0 1 .146.322.372.372 0 0 0 .168.316.848.848 0 0 1 .234 1.079l.058-.021a.106.106 0 0 1 .136.063.107.107 0 0 1 .136.064l.146.409c-.152.052-.304.107-.454.163.283.191.604.37 1.023.478 1.162.3 2.226-.703 2.226-.703l.819.82s-.602.491-1.269.493c-2.038.005-3.325-1.767-4.621-.69-.191.159-.529.558-.733.806l-.927-1.365-.989-1.453.153-.101.029-.02a15.847 15.847 0 0 1 6.104-2.377 12.36 12.36 0 0 1 2.605-3.287Zm0 0a12.351 12.351 0 0 1 2.602 3.284 15.85 15.85 0 0 1 6.13 2.38l.028.02.154.101-.989 1.453-.929 1.365c-.204-.248-.542-.647-.733-.806-1.296-1.077-2.583.695-4.623.69-.667-.002-1.27-.493-1.27-.493l.82-.82s1.064 1.003 2.227.703a3.21 3.21 0 0 0 1.024-.478 16.3 16.3 0 0 0-.455-.163l.147-.409a.107.107 0 0 1 .136-.064.105.105 0 0 1 .136-.063l.058.021a.84.84 0 0 1-.051-.69.841.841 0 0 1 .285-.389.377.377 0 0 0 .146-.184.383.383 0 0 0 .021-.132.484.484 0 0 1 .147-.322.106.106 0 0 1-.061-.135.105.105 0 0 1-.064-.136l.132-.364c-.209-.071-.42-.138-.632-.2l-.086.341a.105.105 0 0 1-.128.076.107.107 0 0 1-.127.077.464.464 0 0 1-.058.35.368.368 0 0 0-.033.368.847.847 0 0 1-.412 1.013l.06.015a.107.107 0 0 1 .077.129.106.106 0 0 1 .077.128l-.116.459a12.38 12.38 0 0 0-.716-.194l.113-.446a.105.105 0 0 1 .128-.077.106.106 0 0 1 .129-.077l.06.016a.849.849 0 0 1 .128-1.097.362.362 0 0 0 .135-.33.47.47 0 0 1 .115-.335.105.105 0 0 1-.074-.128.106.106 0 0 1-.077-.129l.089-.351c-.263-.064-.53-.12-.797-.17.087.18.171.363.25.549l.005.007-.967 1.82a13.119 13.119 0 0 0-2.044-.178V9.648l-.117-.108Zm-7.347 6.943v-.054a.367.367 0 0 0-.135-.344.453.453 0 0 1-.153-.319.107.107 0 0 1-.144-.039.106.106 0 0 1-.145-.037l-.183-.313c-.124.076-.247.154-.368.234l.733 1.079c.121-.066.257-.137.395-.207Zm.905-.354c.053-.008.105-.012.155-.015a.874.874 0 0 1-.012-.279.373.373 0 0 0-.103-.355.49.49 0 0 1-.08-.118.492.492 0 0 1-.044-.214.106.106 0 0 1-.139-.052.105.105 0 0 1-.14-.05l-.148-.315c-.173.088-.345.178-.514.272l.183.311a.107.107 0 0 1-.038.145.107.107 0 0 1-.035.144.47.47 0 0 1 .203.289.369.369 0 0 0 .223.279c.04.02.078.044.115.07.144-.057.275-.099.374-.112Zm5.732-1.153V10.59a10.52 10.52 0 0 0-2.097 3.167l-.004.007.719 1.353c.454-.069.914-.117 1.382-.141Zm-3.915 1.35a.848.848 0 0 1-.508-.968.374.374 0 0 0-.001-.247.376.376 0 0 0-.069-.116.474.474 0 0 1-.091-.342.105.105 0 0 1-.133-.065.106.106 0 0 1-.136-.063l-.129-.36c-.199.079-.396.162-.591.249l.149.317a.105.105 0 0 1-.051.14.107.107 0 0 1-.049.14.48.48 0 0 1 .176.307.366.366 0 0 0 .197.299.846.846 0 0 1 .397.637c.24.106.452.258.674.421l-.02-.057a.105.105 0 0 1 .063-.135.107.107 0 0 1 .064-.136l.058-.021Zm12.389.364.733-1.079c-.121-.08-.244-.158-.367-.234l-.184.313a.106.106 0 0 1-.145.037.106.106 0 0 1-.143.039.467.467 0 0 1-.154.319.367.367 0 0 0-.135.344v.054c.139.07.274.141.395.207Zm-.536-.93a.486.486 0 0 1 .152-.157.106.106 0 0 1-.036-.144.107.107 0 0 1-.038-.145l.183-.311a16.81 16.81 0 0 0-.514-.272l-.148.315a.105.105 0 0 1-.14.05.107.107 0 0 1-.14.052.478.478 0 0 1-.124.332.374.374 0 0 0-.103.355.82.82 0 0 1-.012.279c.051.003.102.007.156.015.099.013.229.055.374.112a.905.905 0 0 1 .115-.07.374.374 0 0 0 .177-.153.374.374 0 0 0 .045-.126.514.514 0 0 1 .053-.132Zm-1.073-1.029.15-.317c-.195-.087-.393-.17-.592-.249l-.129.36a.105.105 0 0 1-.135.063.107.107 0 0 1-.134.065.46.46 0 0 1-.092.342.368.368 0 0 0-.069.363.849.849 0 0 1-.509.968l.059.021c.054.02.083.08.064.136.055.02.083.08.063.135l-.02.057c.221-.163.434-.315.674-.421a.85.85 0 0 1 .397-.637.366.366 0 0 0 .196-.299.47.47 0 0 1 .177-.307.107.107 0 0 1-.049-.14.106.106 0 0 1-.051-.14Zm-4.064.386.72-1.353-.004-.007a10.502 10.502 0 0 0-2.097-3.167v4.386c.467.024.928.072 1.381.141Zm-12.165 3.472h20.146v21.904a3.162 3.162 0 0 1-3.162 3.162h-5.192c-.841 0-1.522.682-1.522 1.523h-.372c0-.841-.682-1.523-1.523-1.523h-5.213a3.162 3.162 0 0 1-3.162-3.162V18.589Zm19.795 21.904V18.94H21.08v21.553a2.812 2.812 0 0 0 2.811 2.811h5.213c.761 0 1.415.454 1.708 1.105a1.877 1.877 0 0 1 1.689-1.105h5.212a2.812 2.812 0 0 0 2.811-2.811Zm-7.676-24.551-.233.437a12.446 12.446 0 0 0-3.624 0l-.233-.437a12.884 12.884 0 0 1 4.09 0Z"/><path fill="#76777b" d="M23.053 20.028a12.28 12.28 0 0 0-.014-.332c.026.004.055.006.086.009a1.53 1.53 0 0 0 .271-.003c.057-.004.113-.006.169-.006.109 0 .194.009.255.027a.344.344 0 0 1 .146.078.417.417 0 0 1 .143.346.655.655 0 0 1-.044.251.425.425 0 0 1-.124.171.498.498 0 0 1-.188.095.844.844 0 0 1-.237.031h-.118c0 .128.002.256.004.383.002.128.007.254.015.378a.734.734 0 0 0-.085-.005h-.207a.752.752 0 0 0-.086.005 11.06 11.06 0 0 0 .018-.702v-.348c0-.142-.001-.268-.004-.378Zm.672-.004a.306.306 0 0 0-.053-.107.2.2 0 0 0-.079-.057.248.248 0 0 0-.093-.018h-.076a.066.066 0 0 0-.021.003l-.003.362-.002.358a.629.629 0 0 0 .12-.013.281.281 0 0 0 .112-.053.297.297 0 0 0 .082-.114.491.491 0 0 0 .032-.197.591.591 0 0 0-.019-.164Zm1.1.004c-.003-.11-.008-.221-.014-.332.026.004.055.006.085.009a1.112 1.112 0 0 0 .208 0c.031-.003.059-.005.085-.009-.005.111-.01.222-.013.332-.004.11-.005.236-.005.378v.348a10.728 10.728 0 0 0 .018.702.734.734 0 0 0-.085-.005h-.208a.748.748 0 0 0-.085.005 11.06 11.06 0 0 0 .019-.702v-.348c0-.142-.002-.268-.005-.378Zm2.44 1.248a.604.604 0 0 0-.018.109.954.954 0 0 1-.471.105.956.956 0 0 1-.358-.063.747.747 0 0 1-.435-.447.98.98 0 0 1-.058-.338c0-.178.025-.328.075-.452a.778.778 0 0 1 .493-.473 1.11 1.11 0 0 1 .474-.044c.045.007.088.017.129.027a.83.83 0 0 1 .215.089.99.99 0 0 0-.053.261h-.032a.608.608 0 0 0-.181-.176.437.437 0 0 0-.401-.006.509.509 0 0 0-.17.141.753.753 0 0 0-.124.242 1.177 1.177 0 0 0-.047.352c0 .132.016.244.049.337a.677.677 0 0 0 .125.228c.052.06.11.103.175.13a.499.499 0 0 0 .311.027.646.646 0 0 0 .218-.099.467.467 0 0 0 .086-.079l.03.02a1.362 1.362 0 0 0-.032.109Zm1.651-.674c-.059-.002-.117-.004-.175-.004a5.063 5.063 0 0 0-.351.011v.146a13.84 13.84 0 0 0 .018.701.746.746 0 0 0-.085-.004h-.207a.735.735 0 0 0-.085.004 10.822 10.822 0 0 0 .018-.701v-.349a13.919 13.919 0 0 0-.018-.71.927.927 0 0 0 .085.009 1.045 1.045 0 0 0 .207 0 .967.967 0 0 0 .085-.009 9.425 9.425 0 0 0-.018.705l.144.004.209.001.203-.001.145-.004c0-.142-.001-.266-.004-.375a12.715 12.715 0 0 0-.015-.33c.027.004.055.007.086.009a1.066 1.066 0 0 0 .208 0 1.01 1.01 0 0 0 .085-.009 13.919 13.919 0 0 0-.019.71v.349a13.84 13.84 0 0 0 .019.701.758.758 0 0 0-.085-.004h-.208a.776.776 0 0 0-.086.004 10.709 10.709 0 0 0 .019-.701v-.146a9.84 9.84 0 0 1-.175-.007Zm1.392-.574c-.003-.11-.008-.221-.014-.332.027.004.055.006.086.009a1.076 1.076 0 0 0 .207 0c.031-.003.059-.005.085-.009a12.455 12.455 0 0 0-.018.71v.348a11.06 11.06 0 0 0 .018.702.734.734 0 0 0-.085-.005h-.207a.766.766 0 0 0-.086.005 11.06 11.06 0 0 0 .019-.702v-.348c0-.142-.002-.268-.005-.378Zm1.22 0c-.003-.11-.008-.221-.014-.332.026.004.055.006.085.009a1.112 1.112 0 0 0 .208 0c.031-.003.059-.005.085-.009-.006.111-.01.222-.014.332-.003.11-.004.236-.004.378v.348a25.766 25.766 0 0 0 .004.518 4.619 4.619 0 0 0 .529-.033c-.004.018-.006.036-.008.051a.975.975 0 0 0 0 .128.168.168 0 0 0 .008.038l-.154-.004-.251-.001h-.364l-.079.001-.045.004a11.06 11.06 0 0 0 .019-.702v-.348c0-.142-.002-.268-.005-.378Zm1.591 0c-.003-.11-.006-.221-.012-.332l.205.008a9.183 9.183 0 0 0 .509.001c.088-.003.148-.005.178-.009a.524.524 0 0 0-.006.172l.006.051-.146-.01-.155-.011c-.05-.003-.094-.006-.134-.007a2.03 2.03 0 0 0-.086-.003 5.275 5.275 0 0 0-.01.28l-.001.279a9.546 9.546 0 0 0 .523-.021c-.004.029-.008.051-.009.067-.002.015-.002.031-.002.049l.003.042c.003.014.005.035.008.062a6.114 6.114 0 0 0-.523-.022l-.001.163-.001.165c0 .11.002.217.006.32a4.59 4.59 0 0 0 .528-.033l-.006.051a.525.525 0 0 0 0 .128c.001.015.004.028.006.038l-.153-.004-.25-.001h-.366l-.078.001-.045.004a11.138 11.138 0 0 0 .016-.702v-.348c0-.142-.001-.268-.004-.378Zm1.771.854-.037.574a.34.34 0 0 0-.055-.005h-.107a.351.351 0 0 0-.055.005c.05-.294.094-.586.132-.876.038-.29.074-.585.106-.884a.497.497 0 0 0 .095.013.497.497 0 0 0 .092-.013c.041.103.085.207.13.313l.136.316c.045.105.091.208.136.309l.13.287c.093-.192.184-.392.276-.601.091-.209.179-.417.262-.624a.434.434 0 0 0 .099.013.44.44 0 0 0 .097-.013l.049.474.052.496c.017.161.034.312.051.452.017.14.032.253.046.338a.966.966 0 0 0-.093-.005h-.189c-.031 0-.064.002-.096.005-.008-.176-.02-.366-.039-.571a99.503 99.503 0 0 0-.053-.61h-.005l-.258.594c-.085.195-.168.391-.252.587l-.022-.004-.021-.001-.022.001-.022.004-.248-.574a38.508 38.508 0 0 0-.255-.581h-.004c-.025.196-.044.39-.056.581Zm2.809.573a.585.585 0 0 1-.223-.115.55.55 0 0 1-.148-.208.784.784 0 0 1-.055-.309l.001-.183.002-.15.001-.133.001-.133-.002-.336a4.734 4.734 0 0 0-.007-.192c.031.004.062.006.095.009a1 1 0 0 0 .189 0c.032-.003.063-.005.094-.009-.016.166-.024.32-.028.463-.003.142-.004.287-.004.434 0 .155.01.281.03.377.02.095.049.169.088.221.04.052.088.087.144.104a.703.703 0 0 0 .199.025.3.3 0 0 0 .217-.076.484.484 0 0 0 .118-.205 1.25 1.25 0 0 0 .05-.294c.006-.11.009-.225.009-.344a13.797 13.797 0 0 0-.018-.705l.062.009a.365.365 0 0 0 .112 0l.059-.009a21.585 21.585 0 0 0-.019.37l-.008.275c-.002.1-.003.205-.003.316 0 .297-.058.51-.173.639-.115.129-.285.193-.507.193-.099 0-.191-.011-.276-.034ZM25.589 42.571c.048-.059.088-.115.118-.167a.564.564 0 0 0 .086-.298.37.37 0 0 0-.012-.102.202.202 0 0 0-.03-.066.12.12 0 0 0-.044-.036.11.11 0 0 0-.049-.011.09.09 0 0 0-.063.022.175.175 0 0 0-.039.057.416.416 0 0 0-.026.138l-.013.005a.515.515 0 0 0-.053-.052l-.052-.047a.27.27 0 0 1 .093-.135.285.285 0 0 1 .186-.056c.062 0 .113.009.153.024a.266.266 0 0 1 .097.062c.023.025.04.053.049.083a.286.286 0 0 1-.002.191.476.476 0 0 1-.058.119 1.204 1.204 0 0 1-.116.149 3.71 3.71 0 0 1-.191.194l.001.003.19-.003c.061-.001.125-.004.189-.009a6.174 6.174 0 0 1-.003.048c-.001.016-.003.032-.003.049l.003.048.003.045-.15-.003h-.295l-.145.003v-.062c.069-.07.128-.134.176-.193Zm.776 0c.048-.059.087-.115.118-.167a.564.564 0 0 0 .074-.4.203.203 0 0 0-.031-.066.11.11 0 0 0-.093-.047.089.089 0 0 0-.062.022.178.178 0 0 0-.04.057.323.323 0 0 0-.025.138l-.014.005a.51.51 0 0 0-.052-.052l-.052-.047a.267.267 0 0 1 .092-.135.29.29 0 0 1 .187-.056c.061 0 .113.009.152.024a.258.258 0 0 1 .097.062.206.206 0 0 1 .05.083.317.317 0 0 1-.002.191.513.513 0 0 1-.058.119 1.223 1.223 0 0 1-.117.149c-.05.056-.113.12-.191.194l.001.003.19-.003a3.06 3.06 0 0 0 .189-.009.77.77 0 0 0 0 .19l-.15-.003h-.294l-.145.003v-.062c.069-.07.128-.134.176-.193Zm1.002-.155h.334v.164h-.334v-.164Zm1.069-.212-.083-.165a9.632 9.632 0 0 1-.072-.144l-.046-.091.062.006a1.126 1.126 0 0 0 .119 0l.06-.006.082.182c.028.06.055.121.084.181l.1-.181.095-.182a.366.366 0 0 0 .102.006l.035-.006a3.628 3.628 0 0 0-.057.087l-.073.116-.078.128-.074.12.073.155.08.162.073.147.055.107-.06-.003h-.116l-.058.003a5.412 5.412 0 0 1-.086-.186 8.152 8.152 0 0 0-.09-.19 9.034 9.034 0 0 0-.203.376c-.021-.001-.043-.003-.066-.003h-.032l-.036.003c.017-.023.037-.055.06-.093l.074-.12.078-.131.074-.124a6.954 6.954 0 0 0-.076-.154Zm.725-.207-.008-.193.049.006a1.096 1.096 0 0 0 .121 0l.05-.006a7.138 7.138 0 0 0-.011.412v.203a7.092 7.092 0 0 0 .011.407l-.05-.002h-.121a.741.741 0 0 0-.049.002 10.475 10.475 0 0 0 .011-.407v-.203c0-.081-.001-.155-.003-.219Zm.477 0-.008-.193.05.006a.996.996 0 0 0 .12 0l.049-.006-.008.193c-.002.064-.002.138-.002.219v.203a7.36 7.36 0 0 0 .01.407.741.741 0 0 0-.049-.002h-.12a.745.745 0 0 0-.05.002l.008-.188c.002-.064.002-.137.002-.219v-.203c0-.081 0-.155-.002-.219Zm3.982-.074-.004.112-.004.118-.001.116v.204l.002.162.006.192a.453.453 0 0 0-.052-.003h-.105a.484.484 0 0 0-.053.003l.004-.068.005-.1.004-.115.002-.124v-.419l-.029.015-.04.023a1.01 1.01 0 0 1-.087.047.422.422 0 0 0-.065-.082 3.087 3.087 0 0 0 .396-.192l.026.012-.005.099Zm.467.326a.224.224 0 0 1-.083-.107.227.227 0 0 1-.012-.075.23.23 0 0 1 .081-.18.25.25 0 0 1 .09-.047.367.367 0 0 1 .113-.016c.048 0 .09.006.127.019a.246.246 0 0 1 .089.05.204.204 0 0 1 .07.16c0 .032-.004.06-.011.085a.283.283 0 0 1-.033.065.23.23 0 0 1-.049.045.201.201 0 0 1-.059.025v.011a.214.214 0 0 1 .122.074.25.25 0 0 1 .043.075.359.359 0 0 1-.007.237.276.276 0 0 1-.067.098.24.24 0 0 1-.101.057.49.49 0 0 1-.251.002.256.256 0 0 1-.099-.053.262.262 0 0 1-.064-.091.323.323 0 0 1-.024-.129c0-.039.006-.075.016-.105a.266.266 0 0 1 .098-.135.25.25 0 0 1 .07-.03v-.011a.167.167 0 0 1-.059-.024Zm.273.124c-.022-.037-.051-.055-.086-.055-.033 0-.061.018-.082.054a.374.374 0 0 0-.031.18c0 .078.01.137.032.176.021.039.049.059.084.059.031 0 .057-.019.081-.058a.349.349 0 0 0 .036-.181.352.352 0 0 0-.034-.175Zm-.002-.437c-.016-.034-.042-.051-.077-.051a.087.087 0 0 0-.085.052.358.358 0 0 0-.025.146c0 .058.011.101.033.13.021.029.044.044.07.044.033 0 .059-.016.079-.05a.271.271 0 0 0 .029-.139.297.297 0 0 0-.024-.132Zm.496.828a.15.15 0 0 0 .153-.007.245.245 0 0 0 .072-.077.48.48 0 0 0 .053-.13.894.894 0 0 0 .023-.188l-.003-.003a.15.15 0 0 1-.027.033.145.145 0 0 1-.036.028.208.208 0 0 1-.048.017.32.32 0 0 1-.065.006.261.261 0 0 1-.097-.018.232.232 0 0 1-.137-.142.424.424 0 0 1 0-.261.275.275 0 0 1 .156-.173.306.306 0 0 1 .127-.025c.049 0 .094.009.133.026.04.017.074.043.103.078.028.035.05.078.066.13a.624.624 0 0 1 .023.182c0 .097-.01.182-.03.257a.629.629 0 0 1-.086.19.381.381 0 0 1-.134.117.378.378 0 0 1-.227.034.137.137 0 0 1-.046-.015 2.052 2.052 0 0 0-.014-.043l-.019-.044.009-.011a.342.342 0 0 0 .051.039Zm.267-.817c-.021-.037-.048-.056-.082-.056-.038 0-.066.02-.085.062a.45.45 0 0 0-.028.174c0 .043.003.079.009.109.005.03.014.053.024.071.01.018.022.031.036.039a.09.09 0 0 0 .045.012c.015 0 .03-.004.043-.012a.1.1 0 0 0 .035-.038.186.186 0 0 0 .025-.066.478.478 0 0 0 .009-.099.437.437 0 0 0-.031-.196Zm.825-.024-.004.112-.003.118-.002.116v.204l.002.162.006.192a.453.453 0 0 0-.052-.003h-.105a.484.484 0 0 0-.053.003l.004-.068.005-.1.004-.115.002-.124v-.419l-.028.015-.041.023a1.01 1.01 0 0 1-.045.025l-.041.022a.608.608 0 0 0-.034-.047c-.013-.017-.025-.028-.032-.035a3.355 3.355 0 0 0 .396-.192l.026.012-.005.099ZM19.317 46.348h.316v1.585h-.316v-1.585Zm.589 0h.315v1.284h.554v.301h-.869v-1.585Zm1.304 0v.913c0 .272.091.411.252.411.165 0 .255-.132.255-.411v-.913h.314v.889c0 .489-.217.721-.58.721-.35 0-.557-.22-.557-.726v-.884h.316Zm1.104 1.216a.732.732 0 0 0 .348.099c.145 0 .221-.068.221-.171 0-.099-.065-.156-.233-.224-.231-.092-.382-.237-.382-.468 0-.27.199-.477.527-.477a.76.76 0 0 1 .355.08l-.071.289a.587.587 0 0 0-.291-.075c-.136 0-.202.07-.202.152 0 .102.079.146.258.224.246.103.361.249.361.473 0 .265-.179.491-.561.491a.812.812 0 0 1-.394-.097l.064-.296Zm1.372-.915h-.374v-.301h1.07v.301h-.38v1.284h-.316v-1.284Zm.863-.28c.101-.018.251-.033.418-.033.207 0 .351.036.45.125.083.075.128.186.128.331a.418.418 0 0 1-.246.391v.007c.098.044.151.15.186.296.043.179.087.386.114.447h-.322a2.165 2.165 0 0 1-.097-.37c-.037-.197-.097-.251-.226-.253h-.094v.623h-.311v-1.564Zm.311.682h.124c.157 0 .25-.089.25-.228 0-.146-.087-.219-.232-.221a.774.774 0 0 0-.142.011v.438Zm1.74.212h-.511v.376h.571v.294h-.887v-1.585h.858v.294h-.542v.329h.511v.292Zm1.868.063a20.995 20.995 0 0 1-.012-.651h-.007c-.043.202-.1.427-.154.613l-.17.619h-.245l-.148-.614a7.83 7.83 0 0 1-.126-.618h-.005c-.008.214-.014.458-.024.656l-.025.602-.291.001.089-1.585h.419l.136.529c.043.182.086.38.118.566l.006-.001c.039-.183.086-.392.132-.568l.148-.527h.41l.077 1.585h-.307l-.021-.607Zm.883-.978v.913c0 .272.091.411.252.411.165 0 .255-.132.255-.411v-.913h.314v.889c0 .489-.216.721-.58.721-.351 0-.557-.22-.557-.726v-.884h.316Zm1.094 1.585v-1.585h.367l.289.581c.083.167.165.364.227.543h.006a6.889 6.889 0 0 1-.027-.661v-.463h.289v1.585h-.33l-.297-.611a6.166 6.166 0 0 1-.241-.56l-.007.002c.009.209.013.433.013.692v.477h-.289Zm1.424-1.585h.316v1.585h-.316v-1.585Zm1.61 1.54a.798.798 0 0 1-.357.069c-.481 0-.729-.342-.729-.793 0-.541.339-.842.76-.842.163 0 .286.038.342.07l-.063.285a.622.622 0 0 0-.265-.059c-.249 0-.443.172-.443.525 0 .317.165.517.446.517a.713.713 0 0 0 .262-.052l.047.28Zm.207-1.54h.315v1.585h-.315v-1.585Zm.588.021c.096-.018.233-.033.425-.033.194 0 .332.043.424.127.089.08.149.212.149.368a.547.547 0 0 1-.128.376c-.107.115-.266.166-.452.166a.66.66 0 0 1-.107-.007v.567h-.311v-1.564Zm.311.72a.43.43 0 0 0 .105.009c.167 0 .27-.096.27-.258 0-.146-.088-.233-.245-.233a.478.478 0 0 0-.13.014v.468Zm1.087.437-.099.407h-.326l.425-1.585h.412l.432 1.585h-.338l-.108-.407h-.398Zm.353-.268-.087-.336c-.025-.094-.05-.212-.07-.306h-.004c-.021.094-.042.215-.064.306l-.083.336h.308Zm.677-.91h.316v1.284h.553v.301h-.869v-1.585Zm1.055 0h.315v1.585h-.315v-1.585Zm.588.021c.116-.021.266-.033.425-.033.264 0 .435.054.57.169.144.123.235.318.235.597 0 .304-.097.513-.231.643-.147.138-.37.204-.642.204-.163 0-.278-.011-.357-.023v-1.557Zm.316 1.293c.027.007.07.007.109.007.285.003.47-.176.47-.555.002-.329-.167-.503-.437-.503a.58.58 0 0 0-.142.014v1.037Zm1.411-.136-.099.407h-.325l.424-1.585h.413l.431 1.585h-.338l-.107-.407h-.399Zm.353-.268-.087-.336c-.024-.094-.049-.212-.069-.306h-.004c-.021.094-.042.215-.065.306l-.082.336h.307Zm.677-.889a2.48 2.48 0 0 1 .425-.033c.264 0 .435.054.569.169.144.123.235.318.235.597 0 .304-.097.513-.231.643-.146.138-.369.204-.641.204-.163 0-.279-.011-.357-.023v-1.557Zm.315 1.293c.027.007.07.007.11.007.284.003.47-.176.47-.555.002-.329-.167-.503-.437-.503a.583.583 0 0 0-.143.014v1.037Zm-17.134 1.294c.115-.021.266-.034.424-.034.265 0 .435.055.57.17.144.122.235.318.235.596 0 .305-.097.514-.231.643-.146.139-.369.205-.642.205-.163 0-.278-.012-.356-.024v-1.556Zm.315 1.293c.027.007.07.007.109.007.285.002.471-.176.471-.555.002-.329-.167-.503-.438-.503a.58.58 0 0 0-.142.014v1.037Zm1.948-.4h-.511v.376h.571v.294h-.888v-1.584h.859v.294h-.542v.329h.511v.291Zm.692-.894c.096-.018.233-.033.425-.033.194 0 .332.043.425.127.088.08.148.212.148.368a.542.542 0 0 1-.128.375c-.107.116-.265.168-.452.168a.65.65 0 0 1-.107-.008v.567h-.311v-1.564Zm.311.72c.027.007.06.01.105.01.167 0 .27-.097.27-.259 0-.146-.088-.233-.245-.233a.478.478 0 0 0-.13.014v.468Zm.888-.74h.316v1.584h-.316v-1.584Zm1.609 1.539a.801.801 0 0 1-.357.068c-.481 0-.728-.34-.728-.792 0-.541.338-.842.759-.842.163 0 .287.038.343.071l-.064.284a.623.623 0 0 0-.265-.058c-.249 0-.443.171-.443.524 0 .317.165.517.446.517a.73.73 0 0 0 .262-.051l.047.279Zm.523-1.539v.609h.518v-.609h.314v1.584h-.314v-.663h-.518v.663h-.315v-1.584h.315Zm1.106 0h.316v1.584h-.316v-1.584Zm.589 0h.315v1.284h.553v.3h-.868v-1.584Zm1.881.914h-.512v.376h.572v.294h-.888v-1.584h.859v.294h-.543v.329h.512v.291Zm1.451.063c-.006-.19-.012-.421-.012-.651h-.007a9.168 9.168 0 0 1-.155.614l-.169.617h-.245l-.149-.613a8.31 8.31 0 0 1-.126-.618h-.004c-.008.214-.014.458-.024.656l-.025.602h-.291l.088-1.585h.419l.136.529c.044.183.087.381.118.566h.006c.04-.183.087-.392.132-.568l.149-.527h.41l.077 1.585h-.307l-.021-.607Zm.883-.977v.912c0 .273.091.411.251.411.165 0 .257-.131.257-.411v-.912h.313v.889c0 .488-.217.721-.58.721-.35 0-.557-.22-.557-.727v-.883h.316Z"/><path fill="#fcdb00" d="m33.745 36.964-1.328-.688 1.426.452a.06.06 0 0 0 .069-.025.062.062 0 0 0-.003-.074l-.963-1.144 1.143.964a.062.062 0 0 0 .099-.067l-.452-1.425.688 1.328c.013.024.04.037.067.032a.063.063 0 0 0 .05-.056l.127-1.489.128 1.489a.06.06 0 0 0 .049.056.064.064 0 0 0 .068-.032l.687-1.328-.451 1.425a.062.062 0 0 0 .024.071.063.063 0 0 0 .074-.004l1.144-.964-.963 1.144a.062.062 0 0 0 .066.099l1.426-.452-1.328.688a.061.061 0 0 0-.032.067.063.063 0 0 0 .055.05l1.489.127-1.489.128a.06.06 0 0 0-.055.049.063.063 0 0 0 .032.068l1.328.688-1.426-.452a.062.062 0 0 0-.066.098l.963 1.144-1.144-.963a.06.06 0 0 0-.074-.004.06.06 0 0 0-.024.07l.451 1.425-.687-1.327a.061.061 0 0 0-.068-.032.06.06 0 0 0-.049.055l-.128 1.489-.127-1.489a.063.063 0 0 0-.05-.055.05.05 0 0 0-.012-.002.062.062 0 0 0-.055.034l-.688 1.327.452-1.425a.06.06 0 0 0-.025-.07.06.06 0 0 0-.074.004l-1.143.963.963-1.144a.062.062 0 0 0 .003-.074.058.058 0 0 0-.069-.024l-1.426.452 1.328-.688a.065.065 0 0 0 .032-.068.062.062 0 0 0-.056-.049l-1.489-.128 1.489-.127a.064.064 0 0 0 .056-.05.062.062 0 0 0-.032-.067Zm-2.825-.086 1.762.167-1.181.102a.063.063 0 0 0-.057.062c0 .032.025.059.057.062l1.147.097-1.728.217v-.707Z"/><path fill="#195633" fill-rule="nonzero" d="M38.416 33.656v5.197a2.109 2.109 0 0 1-2.109 2.109h-4.45c-.384 0-.724.184-.937.469V37.71l2.321-.29.256.022-1.779.922a.063.063 0 0 0-.029.079c.012.03.046.045.076.035l1.911-.606-1.291 1.533a.063.063 0 0 0 .003.084.06.06 0 0 0 .084.003l1.533-1.29-.606 1.91a.062.062 0 0 0 .036.076c.029.012.063 0 .078-.029l.922-1.779.172 1.997a.061.061 0 0 0 .061.057.063.063 0 0 0 .062-.057l.171-1.997.923 1.779c.015.029.049.041.079.029a.061.061 0 0 0 .034-.076l-.606-1.91 1.533 1.29c.025.022.061.02.085-.003a.064.064 0 0 0 .003-.084l-1.291-1.533 1.911.606c.03.01.063-.005.076-.035a.064.064 0 0 0-.029-.079l-1.78-.922 1.997-.171a.063.063 0 0 0 .057-.062.063.063 0 0 0-.057-.062l-1.997-.171 1.78-.922a.064.064 0 0 0 .029-.079.062.062 0 0 0-.076-.035l-1.911.605 1.291-1.533a.063.063 0 0 0-.003-.083.064.064 0 0 0-.085-.004l-1.533 1.292.606-1.911a.061.061 0 0 0-.034-.076.062.062 0 0 0-.079.029l-.923 1.779-.171-1.997a.063.063 0 0 0-.062-.057.061.061 0 0 0-.061.057l-.172 1.997-.922-1.779a.061.061 0 0 0-.078-.029.062.062 0 0 0-.036.076l.606 1.911-1.533-1.292a.063.063 0 0 0-.084.004.061.061 0 0 0-.003.083l1.291 1.533-1.911-.605a.061.061 0 0 0-.076.035.063.063 0 0 0 .029.079l1.779.922-.127.011-2.45-.233v-4.699c.373.357 1.262 1.159 1.955 1.409 1.142.412 1.851-.186 2.07-.415.18.231.725.842 1.491.842.332 0 .682-.139 1.011-.401.163-.129.282-.257.346-.332l.623.498Z"/><path fill="#43c1e1" fill-rule="nonzero" d="m38.416 33.444-.65-.52-.051.068c-.006.007-.564.733-1.279.733-.835 0-1.41-.846-1.416-.854l-.066-.098-.07.095a1.535 1.535 0 0 1-.491.392c-.435.225-.927.241-1.462.048-.652-.235-1.519-1.014-1.89-1.366h7.375v1.502ZM30.686 32.661a.155.155 0 0 0-.023-.008c-.066-.01-1.633-.252-3.367 1.118-1.131.893-1.606 1.965-1.953 2.747-.157.354-.293.659-.447.845-.079.096-.185.137-.364.139-.007-.002-.014-.004-.021-.004a.388.388 0 0 1-.388-.388.082.082 0 0 0-.083-.082h-.009a.082.082 0 0 0-.082.082.389.389 0 0 1-.76.115v-5.283h7.497v.719Z"/><path fill="#0033a1" fill-rule="nonzero" d="M30.636 32.816c-.02-.004-1.566-.237-3.238 1.084-1.098.867-1.564 1.917-1.904 2.684-.162.365-.301.68-.47.884-.144.175-.342.198-.498.198a.09.09 0 0 1-.023-.003.555.555 0 0 1-.467-.272.554.554 0 0 1-.847.129v1.312c.002.26.026.359.049.468a2.108 2.108 0 0 0 2.06 1.661h4.451c.383 0 .723.184.937.469v-8.622a.079.079 0 0 1-.05.008"/><path fill="#fff" d="M27.662 36.069a.62.62 0 0 1-.42-1.075.619.619 0 0 1 .136-.759.083.083 0 0 1 .117.007.083.083 0 0 1-.007.117.454.454 0 0 0 .548.722.08.08 0 0 1 .114.024.083.083 0 0 1-.024.114.615.615 0 0 1-.785-.09.455.455 0 0 0 .63.653.082.082 0 0 1 .117.005.082.082 0 0 1-.004.116.616.616 0 0 1-.422.166Zm1.265 3.147a.081.081 0 0 1-.023.114.621.621 0 0 1-.781-.085.62.62 0 0 1-.795-.947.62.62 0 0 1 .136-.76.082.082 0 0 1 .116.008.081.081 0 0 1-.007.116.456.456 0 0 0 .3.796.459.459 0 0 0 .237-.067.478.478 0 0 1 .045-.045.083.083 0 0 1 .117.008.083.083 0 0 1-.008.117c-.01.008-.019.019-.029.028l-.013.015a.455.455 0 0 0 .591.678.082.082 0 0 1 .114.024Zm-1.179-.009c.1 0 .197-.033.276-.094a.614.614 0 0 1-.047-.499.617.617 0 0 1-.55-.181.45.45 0 0 0-.134.319c0 .251.205.455.455.455Zm2.941-.391v.173a1.807 1.807 0 0 1-.494.068c-.896 0-1.625-.653-1.625-1.456 0-.631.458-1.188 1.113-1.383a.03.03 0 0 0 .009-.002l.021-.006a.444.444 0 1 1-.322.314c-.398.234-.656.635-.656 1.077 0 .712.655 1.291 1.46 1.291.17 0 .336-.025.494-.076Zm-1.19-3.985a.082.082 0 0 1 .024-.114l1.163-.753v.197l-1.073.694a.082.082 0 0 1-.045.014.082.082 0 0 1-.069-.038Zm1.188 2.383v.197l-.955.618a.081.081 0 0 1-.045.013.081.081 0 0 1-.069-.038.082.082 0 0 1 .024-.114l1.045-.676Zm-.096-1.55a3.478 3.478 0 0 0-1.001.109 1.923 1.923 0 0 0 1.098-.06v.174a2.1 2.1 0 0 1-1.393-.031 4.994 4.994 0 0 0-1.434.732c-.884.643-1.189 1.329-1.433 1.88-.127.284-.246.553-.422.767-.145.174-.342.198-.498.198a.097.097 0 0 1-.023-.003.55.55 0 0 1-.467-.272.554.554 0 0 1-.951 0 .554.554 0 0 1-.827.146l-.013-.019a.99.99 0 0 1-.036-.229c-.002-.085-.002-.158-.002-.215l.003-.005a.077.077 0 0 1 .011.04.39.39 0 0 0 .777 0c0-.046.036-.083.084-.083l.003.001.004-.001c.046 0 .083.037.083.083a.39.39 0 0 0 .388.389.39.39 0 0 0 .388-.389c0-.046.037-.083.083-.083l.005.001.004-.001c.046 0 .083.037.083.083a.39.39 0 0 0 .388.389l.021.002c.179-.001.285-.041.365-.137.161-.197.271-.444.398-.729.252-.569.566-1.277 1.486-1.946a5.22 5.22 0 0 1 1.313-.699c-.507-.269-.845-.744-.845-1.284 0-.618.442-1.151 1.074-1.388l.001.002a.43.43 0 1 1-.283.324c-.381.248-.627.631-.627 1.062 0 .529.37.987.907 1.209.703-.211 1.213-.188 1.3-.182l.085.001v.165l-.097-.001Z"/><path fill="#fcd200" fill-rule="nonzero" d="M33.252 30.176a.081.081 0 0 0-.076.051.072.072 0 0 0-.007.033v.001a.388.388 0 0 1-.143.299l-1.951-1.191c.16-.146.526-.5.94-1.019l2.131.846v.996a.082.082 0 0 0-.035.068.39.39 0 0 1-.777.001v-.002a.082.082 0 0 0-.082-.083M35.116 28.781c.251-.396.555-.941.863-1.65l1.021.356v2.116l-1.884-.822Z"/><path fill="#43c1e1" d="M34.311 22.688h2.675a15.665 15.665 0 0 1-1.033 4.078c-.673 1.652-1.369 2.517-1.642 2.818v-6.896Zm-3.391 0h3.206c-.075.561-.38 2.404-1.327 4.179a9.33 9.33 0 0 1-1.879 2.42v-6.599Zm7.496 7.96a.39.39 0 0 1-.356-.387.082.082 0 0 0-.083-.082h-.009a.082.082 0 0 0-.083.082.388.388 0 0 1-.719.201v-7.774h1.25v7.96Zm-5.573-.006a.386.386 0 0 1-.431-.263l.431.263Zm-1.923-1.174 1.308.799a.388.388 0 0 1-.776-.008.081.081 0 0 0-.015-.046.08.08 0 0 0-.068-.037.083.083 0 0 0-.083.083.389.389 0 0 1-.366.387v-1.178Zm3.391.466.664.569a.388.388 0 0 1-.664-.103v-.466Z"/><path fill="#0033a1" fill-rule="nonzero" d="M38.416 31.708H30.92v-.896a.553.553 0 0 0 .449-.264.55.55 0 0 0 .941.001.551.551 0 0 0 .941 0 .555.555 0 0 0 .471.265c.202 0 .379-.11.476-.272a.553.553 0 0 0 .946.008.551.551 0 0 0 .941 0 .553.553 0 0 0 .941 0 .554.554 0 0 0 .946-.007.554.554 0 0 0 .444.27v.895Z"/><path fill="#184484" fill-rule="nonzero" d="M36.492 25.768c.248-.773.407-1.48.509-2.034v2.213l-.509-.179Z"/><path fill="#e30613" fill-rule="nonzero" d="M33.663 25.272c.248-.773.385-1.447.486-2l.008 2.215-.494-.215Z"/><path fill="#184484" fill-rule="nonzero" d="m32.845 27.124.099-.18a11.62 11.62 0 0 0 .673-1.525l.529.231v2.027l-1.301-.553Z"/><path fill="#e30613" fill-rule="nonzero" d="M36.944 30.263a.389.389 0 0 1-.776.003v-.005a.083.083 0 0 0-.083-.083.082.082 0 0 0-.082.083v.005a.388.388 0 0 1-.776-.003v-.003a.083.083 0 0 0-.129-.068.083.083 0 0 0-.037.069v.002a.35.35 0 0 1-.006.065l-.676-.571c.094-.099.271-.298.497-.617.046-.065.097-.139.149-.218l1.975.861v.399a.086.086 0 0 0-.05.047.087.087 0 0 0-.006.032v.002Z"/><path fill="#265e34" fill-rule="nonzero" d="M30.686 31.708h-2.262v-2.04a.083.083 0 0 0-.052-.076.082.082 0 0 0-.09.018c-.003.003-.339.337-.979.401a3.38 3.38 0 0 1-1.235-.108c.27-.101.728-.289 1.065-.503.511-.325.958-.813.977-.834a.085.085 0 0 0 .01-.098.083.083 0 0 0-.091-.038 9.622 9.622 0 0 1-.763.149 2.904 2.904 0 0 1-.468.019c.272-.161.701-.431.925-.658.539-.543.71-1.132.717-1.157a.083.083 0 0 0-.131-.087 1.693 1.693 0 0 1-.617.274 2.437 2.437 0 0 1-.447.066c.217-.189.595-.543.863-.924.502-.715.586-1.242.59-1.265a.08.08 0 0 0-.036-.08.08.08 0 0 0-.087-.004c-.004.002-.383.223-.508.281-.043.02-.116.05-.195.081.178-.209.424-.533.633-.933.276-.531.325-1.193.332-1.504h1.849v9.02Z"/><path fill="#00af42" d="M28.671 22.688c-.008.298-.056.933-.313 1.427-.355.681-.835 1.146-.84 1.151a.082.082 0 0 0-.014.104c.021.033.063.047.098.033.018-.006.402-.147.535-.21.075-.035.23-.121.351-.19a3.657 3.657 0 0 1-.515 1.013c-.374.532-.994 1.028-.999 1.033a.084.084 0 0 0-.029.086.082.082 0 0 0 .067.06c.011.002.27.041.718-.065.194-.045.352-.112.465-.171-.095.214-.277.55-.59.865-.32.323-1.124.765-1.131.769a.083.083 0 0 0 .032.155c.02.002.474.04.785-.006.181-.027.361-.061.503-.091a4.99 4.99 0 0 1-.75.609c-.48.306-1.249.565-1.256.567a.08.08 0 0 0-.055.075v.004l-1.162.017c.191-.082.416-.193.627-.335.72-.486.944-1.329.953-1.364a.09.09 0 0 0-.023-.081.085.085 0 0 0-.082-.019c-.005.001-.481.146-.852.066a2.766 2.766 0 0 1-.376-.112c.224-.081.57-.23.801-.442.634-.584.713-.846.72-.874a.084.084 0 0 0-.034-.089.081.081 0 0 0-.094.002c-.001.001-.138.088-.606.109a1.754 1.754 0 0 1-.478-.039 3.2 3.2 0 0 0 .792-.688c.557-.674.667-1.208.672-1.231a.081.081 0 0 0-.042-.088.08.08 0 0 0-.097.013c-.001.001-.142.134-.495.267-.106.04-.193.063-.262.076.18-.177.468-.503.707-.962.261-.498.319-1.114.331-1.444h1.938Zm-2.35 9.02v-1.575c.263.049.607.082.998.042.458-.045.772-.216.939-.333v1.866h-1.937Z"/><path fill="#fcd200" fill-rule="nonzero" d="M23.189 22.688h3.377c-.012.317-.069.905-.311 1.368a3.6 3.6 0 0 1-.834 1.063.083.083 0 0 0-.03.081.084.084 0 0 0 .059.064c.019.005.197.048.565-.091.145-.055.258-.111.343-.159a3.43 3.43 0 0 1-.567.938c-.411.5-.9.736-.905.739a.084.084 0 0 0-.047.073c0 .032.017.06.045.075.011.005.263.131.728.111.21-.01.36-.033.467-.057a4.07 4.07 0 0 1-.573.621c-.329.303-.945.474-.951.476a.08.08 0 0 0-.06.073.082.082 0 0 0 .047.082c.013.005.309.141.616.207.281.06.603.009.787-.032-.093.252-.339.793-.84 1.131-.469.316-1.037.48-1.043.482a.083.083 0 0 0-.059.092c.006.04.042.069.083.07l1.949-.029c.037.011.077.021.121.032v.547a.387.387 0 0 1-.43-.384v-.002a.083.083 0 0 0-.159-.032.072.072 0 0 0-.007.033v.001a.388.388 0 0 1-.776.003l.001-.005a.083.083 0 0 0-.082-.083h-.001a.083.083 0 0 0-.083.083l.001.005a.389.389 0 0 1-.776-.005.073.073 0 0 0-.015-.046.08.08 0 0 0-.068-.037.083.083 0 0 0-.083.083.388.388 0 0 1-.489.374v-7.945Z"/><path fill="#0033a1" fill-rule="nonzero" d="M23.189 30.803a.556.556 0 0 0 .572-.254.553.553 0 0 0 .941 0 .552.552 0 0 0 .941.001.553.553 0 0 0 .47.264c.015 0 .029-.002.043-.003v.897h-2.967v-.905Z"/><path fill="#fcdb00" d="m39.82 8.939.958-2.331.166.068-.958 2.331-.166-.068Zm1.777-1.987.163.077-1.011 2.144 1.015.479-.063.135-1.178-.554 1.074-2.281Zm1.66.809-.751 1.324c-.318.559-.179.922.143 1.105.364.206.747.114 1.054-.426l.751-1.323.156.088-.744 1.311c-.382.673-.885.71-1.298.476-.383-.218-.606-.637-.224-1.31l.757-1.333.156.088Zm.663 2.991a.994.994 0 0 0 .361.446c.312.213.624.168.799-.089.158-.231.133-.452-.092-.773-.251-.348-.334-.658-.142-.939.209-.306.611-.357.966-.115.194.133.309.284.348.378l-.142.089a.809.809 0 0 0-.3-.35c-.336-.229-.598-.092-.71.072-.156.229-.103.437.116.758.248.374.322.655.111.964-.206.303-.606.424-1.051.12-.179-.122-.349-.324-.402-.478l.138-.083Zm3.141-.319-.645-.511.093-.117 1.431 1.134-.093.117-.645-.511-1.474 1.858-.14-.111 1.473-1.859Zm1.15.796c.139.082.308.212.438.332.242.222.348.417.358.615a.63.63 0 0 1-.174.449c-.231.251-.527.274-.81.15l-.004.005c.105.184.069.411-.077.658-.203.347-.294.518-.323.627l-.136-.124c.021-.083.132-.281.298-.56.188-.32.184-.548-.051-.785l-.289-.266-.783.851-.132-.122 1.685-1.83Zm-.671.994.294.271c.287.264.621.277.846.032.261-.284.159-.592-.133-.861a1.695 1.695 0 0 0-.29-.221l-.717.779Zm2.05 2.111-.688-.735-.805.754.769.823-.109.102-.892-.954 1.841-1.723.851.91-.109.102-.729-.778-.707.662.687.735-.109.102Zm2.144 2.871c.294-.238.654-.533.879-.694l-.005-.006c-.276.083-.572.171-.964.272l-1.422.366-.072-.1.798-1.185c.237-.344.42-.609.601-.831l-.004-.006c-.245.166-.611.406-.969.626l-.989.612-.102-.144 2.156-1.319.12.167-.867 1.289c-.189.282-.345.5-.501.699l.006.01c.225-.084.476-.152.826-.247l1.512-.389.124.174-1.951 1.605-.102-.143.926-.756Zm1.693.218-1.325.749c-.559.316-.627.697-.445 1.019.206.365.582.484 1.122.178l1.325-.748.088.156-1.312.741c-.674.381-1.124.154-1.357-.259-.217-.384-.192-.857.481-1.238l1.335-.754.088.156Zm-1.181 3.086 2.305-1.018.069.154-.966 1.497a8.361 8.361 0 0 1-.533.755l.006.005c.301-.161.562-.281.922-.44l1.149-.507.069.157-2.305 1.019-.067-.151.953-1.472c.188-.287.361-.551.548-.777l-.006-.005c-.277.142-.525.256-.908.425l-1.166.515-.07-.157Zm.903 2.153 2.368-.866.061.168-2.367.867-.062-.169Zm.84 2.321c-.098-.103-.228-.318-.317-.616-.175-.584.03-1.254.887-1.511.717-.215 1.396.086 1.624.849.093.308.079.508.064.59l-.159-.011c.024-.14.015-.328-.047-.532-.195-.653-.737-.924-1.432-.716-.656.197-.967.696-.773 1.345.061.204.164.392.274.511l-.121.091Zm-.012.401 2.453-.579.041.174-2.453.579-.041-.174Zm2.624.291c.051.139.106.315.144.525.053.295.016.533-.092.693a.652.652 0 0 1-.451.279c-.213.039-.382.009-.528-.083-.209-.126-.352-.373-.407-.679a1.127 1.127 0 0 1-.026-.307l-1.06.191-.032-.177 2.452-.442Zm-1.205.4c-.014.09-.002.202.02.323.081.446.342.672.736.601.39-.07.516-.386.444-.78a1.74 1.74 0 0 0-.092-.344l-1.108.2Zm-.076 1.686-.912-.21-.02-.182 2.607.628.019.171-2.405 1.182-.021-.182.842-.414-.11-.993Zm.253.921.803-.398c.168-.079.29-.127.427-.18l-.001-.007c-.148-.021-.283-.048-.448-.081l-.879-.215.098.881Zm1.56.929.006.179-2.37.075.035 1.122-.15.004-.041-1.3 2.52-.08Zm-2.494 1.724 2.52.049-.003.18-2.521-.05.004-.179Zm2.468.956c.016.197.021.411 0 .65-.04.458-.192.794-.43.984-.226.183-.519.27-.899.238-.369-.032-.692-.161-.922-.41-.223-.24-.332-.633-.29-1.117.016-.194.036-.376.067-.558l2.474.213Zm-2.341-.021c-.024.099-.04.244-.054.404-.069.805.348 1.243 1.074 1.306.637.062 1.104-.255 1.173-1.063a2.342 2.342 0 0 0-.002-.458l-2.191-.189Zm.455 2.567-.814-.463.033-.18 2.319 1.346-.031.169-2.642.447.032-.18.925-.156.178-.983Zm-.02.954.883-.152c.183-.028.314-.038.461-.05l.001-.008a6.514 6.514 0 0 1-.407-.206l-.78-.456-.158.872Zm1.197 1.354c-.02.196-.057.407-.122.637-.124.443-.337.745-.606.887-.256.138-.56.168-.927.065-.357-.1-.65-.287-.829-.575-.175-.277-.208-.683-.076-1.151.052-.188.105-.363.17-.535l2.39.672Zm-2.295-.459a3.01 3.01 0 0 0-.128.387c-.219.778.108 1.285.81 1.483.614.18 1.131-.043 1.351-.825.052-.187.075-.339.084-.45l-2.117-.595Zm1.248 3.775c-.046.192-.11.397-.205.617-.182.423-.433.694-.718.798-.273.103-.578.094-.928-.057-.341-.147-.606-.371-.746-.68-.136-.299-.116-.706.076-1.152a7.26 7.26 0 0 1 .24-.508l2.281.982Zm-2.215-.758a2.963 2.963 0 0 0-.178.367c-.32.742-.063 1.289.607 1.577.585.26 1.127.107 1.448-.638.077-.179.12-.327.143-.436l-2.02-.87Zm-.494 3.576.475-.887-.973-.522-.531.993-.132-.071.616-1.15 2.223 1.191-.588 1.098-.132-.071.503-.94-.854-.458-.475.888-.132-.071Zm.274 1.93c-.06.136-.145.3-.265.476-.169.247-.363.391-.552.429a.658.658 0 0 1-.517-.118c-.179-.122-.278-.262-.317-.43-.061-.236.011-.513.186-.77.065-.095.125-.176.197-.236l-.889-.607.101-.148 2.056 1.404Zm-1.138-.56a1.03 1.03 0 0 0-.212.244c-.256.374-.228.719.102.944.327.224.638.087.863-.243.093-.136.151-.246.176-.31l-.929-.635Zm-1.979.658 2.001 1.532-.108.142-2.002-1.532.109-.142Zm-1.506 1.952c.035-.138.146-.363.349-.598.398-.461 1.074-.648 1.75-.064.566.489.678 1.223.157 1.826-.21.244-.387.338-.464.371l-.076-.14c.131-.055.285-.165.424-.326.445-.515.383-1.117-.166-1.592-.518-.447-1.106-.441-1.549.07-.139.161-.242.35-.284.506l-.141-.053Zm1.293 2.146-.77-.8-1.002.964.77.799-.13.125-1.746-1.816.129-.124.873.908 1.003-.964-.874-.908.13-.125 1.746 1.817-.129.124Zm-3.315-.366 1.627 1.926-.137.116-1.627-1.927.137-.115Zm.949 2.488-.143.109-1.436-1.887-.893.68-.09-.119 1.036-.789 1.526 2.006Zm-3.142.666.841-.552-.604-.922-.942.617-.082-.125 1.092-.716 1.381 2.109-1.041.682-.082-.125.891-.584-.53-.81-.842.551-.082-.125Zm-2.427 1.272c.196.324.438.72.567.965l.007-.004c-.045-.284-.091-.59-.138-.992l-.167-1.458.109-.057 1.063.952c.309.282.546.499.741.709l.006-.003a26.45 26.45 0 0 1-.486-1.045l-.471-1.063.156-.082 1.011 2.316-.181.096-1.158-1.035a11.25 11.25 0 0 1-.624-.593l-.01.005c.052.235.085.492.131.852l.178 1.551-.188.099-1.323-2.152.156-.082.621 1.021Zm-.453 1.648-.558-1.417c-.236-.598-.605-.718-.949-.582-.39.153-.56.51-.332 1.087l.558 1.417-.167.066-.552-1.403c-.284-.721.003-1.135.445-1.31.41-.161.876-.071 1.16.649l.562 1.427-.167.066Z"/></svg>